# xmcd
#
# Track frame offsets:
#	150
#	16395
#	27150
#	38260
#	47570
#	60080
#	71192
#	85837
#	95590
#	107600
#	117290
#	130612
#	142115
#	151002
#	161030
#	169834
#	178552
#	188275
#	196492
#	207142
#	218640
#	225170
#	230845
#	238520
#	247127
#	255717
#	265202
#
# Disc length: 3670 seconds
#
# Revision: 0
# Processed by: cddbd v1.5.1PL0 Copyright (c) Steve Scherf et al.
# Submitted via: audiograbber 1.83.01
#
DISCID=610e541b
DTITLE=Emile Ford - Double CD collection CD 2
DYEAR=1900
DGENRE=
TTITLE0=Scarlet ribbons
TTITLE1=Walking the floor over you
TTITLE2=Early in the morning
TTITLE3=Swanee River
TTITLE4=Smoke gets in your eyes
TTITLE5=Little juke
TTITLE6=Buona sera
TTITLE7=Just keep on doing what you're doing
TTITLE8=Ain't that a shame
TTITLE9=The shape I'm in
TTITLE10=Have I told you lately that I love you
TTITLE11=Bloodshot eyes
TTITLE12=Be my guest
TTITLE13=It's all in the game
TTITLE14=Still
TTITLE15=Somewhere
TTITLE16=I need your love tonight
TTITLE17=What do you want to make those eyes at me for
TTITLE18=My prayer
TTITLE19=Dream baby (how long must I dream)
TTITLE20=Down by the riverside
TTITLE21=When the saints go marching in
TTITLE22=Sorry (I ran all the way home)
TTITLE23=Twilight time
TTITLE24=You are my sunshine
TTITLE25=Mona Lisa
TTITLE26=Only you
EXTD=
EXTT0=
EXTT1=
EXTT2=
EXTT3=
EXTT4=
EXTT5=
EXTT6=
EXTT7=
EXTT8=
EXTT9=
EXTT10=
EXTT11=
EXTT12=
EXTT13=
EXTT14=
EXTT15=
EXTT16=
EXTT17=
EXTT18=
EXTT19=
EXTT20=
EXTT21=
EXTT22=
EXTT23=
EXTT24=
EXTT25=
EXTT26=
PLAYORDER=
